<svg width="20" height="18" viewBox="0 0 20 18" version="1.1" xmlns="http://www.w3.org/2000/svg" xmlns:xlink="http://www.w3.org/1999/xlink">
<title>checked box</title>
<desc>Created using Figma</desc>
<g id="Canvas" transform="translate(772 832)">
<g id="checked box">
<g id="Rectangle 6.9">
<mask id="mask0_outline_ins">
<use xlink:href="#path0_fill" fill="white" transform="translate(-772 -830)"/>
</mask>
<g mask="url(#mask0_outline_ins)">
<use xlink:href="#path1_stroke_2x" transform="translate(-772 -830)" fill="#008F4A"/>
</g>
</g>
<g id="done">
<g id="Shape">
<use xlink:href="#path2_fill" transform="translate(-769.603 -832)" fill="#008F4A"/>
</g>
</g>
</g>
</g>
<defs>
<path id="path0_fill" d="M 0 3C 0 1.34315 1.34315 0 3 0L 12.9988 0C 14.6557 0 15.9988 1.34315 15.9988 3L 15.9988 13C 15.9988 14.6569 14.6557 16 12.9988 16L 3 16C 1.34315 16 0 14.6569 0 13L 0 3Z"/>
<path id="path1_stroke_2x" d="M 3 1L 12.9988 1L 12.9988 -1L 3 -1L 3 1ZM 14.9988 3L 14.9988 13L 16.9988 13L 16.9988 3L 14.9988 3ZM 12.9988 15L 3 15L 3 17L 12.9988 17L 12.9988 15ZM 1 13L 1 3L -1 3L -1 13L 1 13ZM 3 15C 1.89543 15 1 14.1046 1 13L -1 13C -1 15.2091 0.790861 17 3 17L 3 15ZM 14.9988 13C 14.9988 14.1046 14.1034 15 12.9988 15L 12.9988 17C 15.2079 17 16.9988 15.2091 16.9988 13L 14.9988 13ZM 12.9988 1C 14.1034 1 14.9988 1.89543 14.9988 3L 16.9988 3C 16.9988 0.790861 15.2079 -1 12.9988 -1L 12.9988 1ZM 3 -1C 0.790861 -1 -1 0.790861 -1 3L 1 3C 1 1.89543 1.89543 1 3 1L 3 -1Z"/>
<path id="path2_fill" fill-rule="evenodd" d="M 5.6 11.4154L 1.4 6.89231L 0 8.4L 5.6 14.4308L 17.6 1.50769L 16.2 0L 5.6 11.4154Z"/>
</defs>
</svg>
