<svg width="24" height="24" viewBox="0 0 24 24" version="1.1" xmlns="http://www.w3.org/2000/svg" xmlns:xlink="http://www.w3.org/1999/xlink">
<title>drive-form</title>
<desc>Created using Figma</desc>
<g id="Canvas" transform="translate(1394 3861)">
<g id="drive-form">
<g id="Shape">
<use xlink:href="#path0_fill" transform="translate(-1394 -3861)" fill="#21CB8D"/>
</g>
</g>
</g>
<defs>
<path id="path0_fill" fill-rule="evenodd" d="M 21.3333 0L 2.66667 0C 1.2 0 0 1.2 0 2.66667L 0 21.3333C 0 22.8 1.2 24 2.66667 24L 21.3333 24C 22.8 24 24 22.8 24 21.3333L 24 2.66667C 24 1.2 22.8 0 21.3333 0ZM 7.99992 18.6667L 5.33325 18.6667L 5.33325 16L 7.99992 16L 7.99992 18.6667ZM 7.99992 13.3334L 5.33325 13.3334L 5.33325 10.6667L 7.99992 10.6667L 7.99992 13.3334ZM 7.99992 8.00004L 5.33325 8.00004L 5.33325 5.33337L 7.99992 5.33337L 7.99992 8.00004ZM 18.6667 18.6667L 9.33337 18.6667L 9.33337 16L 18.6667 16L 18.6667 18.6667ZM 18.6667 13.3334L 9.33337 13.3334L 9.33337 10.6667L 18.6667 10.6667L 18.6667 13.3334ZM 18.6667 8.00004L 9.33337 8.00004L 9.33337 5.33337L 18.6667 5.33337L 18.6667 8.00004Z"/>
</defs>
</svg>
