<svg width="24" height="24" viewBox="0 0 24 24" version="1.1" xmlns="http://www.w3.org/2000/svg" xmlns:xlink="http://www.w3.org/1999/xlink">
<title>drive-form</title>
<desc>Created using Figma</desc>
<g id="Canvas" transform="translate(3473 2565)">
<g id="drive-form">
<g id="Shape">
<use xlink:href="#path0_fill" transform="translate(-3473 -2565)" fill="#828282"/>
</g>
</g>
</g>
<defs>
<path id="path0_fill" fill-rule="evenodd" d="M 21.3333 0L 2.66667 0C 1.2 0 0 1.2 0 2.66667L 0 21.3333C 0 22.8 1.2 24 2.66667 24L 21.3333 24C 22.8 24 24 22.8 24 21.3333L 24 2.66667C 24 1.2 22.8 0 21.3333 0ZM 7.99992 18.6667L 5.33325 18.6667L 5.33325 16L 7.99992 16L 7.99992 18.6667ZM 7.99992 13.3334L 5.33325 13.3334L 5.33325 10.6667L 7.99992 10.6667L 7.99992 13.3334ZM 7.99992 7.99992L 5.33325 7.99992L 5.33325 5.33325L 7.99992 5.33325L 7.99992 7.99992ZM 18.6668 18.6667L 9.3335 18.6667L 9.3335 16L 18.6668 16L 18.6668 18.6667ZM 18.6668 13.3334L 9.3335 13.3334L 9.3335 10.6667L 18.6668 10.6667L 18.6668 13.3334ZM 18.6668 7.99992L 9.3335 7.99992L 9.3335 5.33325L 18.6668 5.33325L 18.6668 7.99992Z"/>
</defs>
</svg>
