<svg width="21" height="24" viewBox="0 0 21 24" version="1.1" xmlns="http://www.w3.org/2000/svg" xmlns:xlink="http://www.w3.org/1999/xlink">
<title>notifications</title>
<desc>Created using Figma</desc>
<g id="Canvas" transform="translate(5333 1908)">
<g id="notifications">
<g id="Shape">
<use xlink:href="#path0_fill" transform="translate(-5333 -1908)" fill="url(#paint0_linear)"/>
</g>
</g>
</g>
<defs>
<linearGradient id="paint0_linear" x1="0" y1="0" x2="1" y2="0" gradientUnits="userSpaceOnUse" gradientTransform="matrix(20.4 24 -20.4 25.2574 10.2 -12.6287)">
<stop offset="0" stop-color="#2EFF4F"/>
<stop offset="0.546961" stop-color="#00FF85"/>
<stop offset="0.977901" stop-color="#00FFC2"/>
</linearGradient>
<path id="path0_fill" fill-rule="evenodd" d="M 10.1998 24.0001C 11.5198 24.0001 12.5998 22.9201 12.5998 21.6001L 7.7998 21.6001C 7.7998 22.9201 8.8798 24.0001 10.1998 24.0001ZM 18 16.8L 18 10.2C 18 6.48 15.48 3.48 12 2.64L 12 1.8C 12 0.84 11.16 0 10.2 0C 9.24 0 8.4 0.84 8.4 1.8L 8.4 2.64C 4.92 3.48 2.4 6.48 2.4 10.2L 2.4 16.8L 0 19.2L 0 20.4L 20.4 20.4L 20.4 19.2L 18 16.8Z"/>
</defs>
</svg>
