<svg width="24" height="24" viewBox="0 0 24 24" version="1.1" xmlns="http://www.w3.org/2000/svg" xmlns:xlink="http://www.w3.org/1999/xlink">
<title>settings-applications</title>
<desc>Created using Figma</desc>
<g id="Canvas" transform="translate(3473 2301)">
<g id="settings-applications">
<g id="Shape">
<use xlink:href="#path0_fill" transform="translate(-3473 -2301)" fill="#828282"/>
</g>
</g>
</g>
<defs>
<path id="path0_fill" fill-rule="evenodd" d="M 12.0002 9.33331C 10.5335 9.33331 9.3335 10.5333 9.3335 12C 9.3335 13.4666 10.5335 14.6666 12.0002 14.6666C 13.4668 14.6666 14.6668 13.4666 14.6668 12C 14.6668 10.5333 13.4668 9.33331 12.0002 9.33331ZM 21.3333 0L 2.66667 0C 1.2 0 0 1.2 0 2.66667L 0 21.3333C 0 22.8 1.2 24 2.66667 24L 21.3333 24C 22.8 24 24 22.8 24 21.3333L 24 2.66667C 24 1.2 22.8 0 21.3333 0ZM 18.9334 12C 18.9334 12.2667 18.9334 12.6667 18.9334 12.9333L 20.9334 14.5333C 21.0667 14.6667 21.2 14.9333 21.0667 15.0667L 19.2 18.2667C 19.0667 18.5333 18.8 18.5333 18.6667 18.5333L 16.4 17.6C 15.8667 18 15.3334 18.2667 14.8 18.5333L 14.4 21.0667C 14.4 21.3333 14.1334 21.4667 14 21.4667L 10.2667 21.4667C 10 21.4667 9.8667 21.3333 9.8667 21.0667L 9.33337 18.5333C 8.80004 18.2667 8.2667 18 7.73337 17.6L 5.4667 18.5333C 5.20004 18.6667 5.0667 18.5333 4.93337 18.2667L 3.0667 15.0667C 2.93337 14.8 3.0667 14.6667 3.20004 14.5333L 5.20004 12.9333C 5.20004 12.6667 5.20004 12.2667 5.20004 12C 5.20004 11.7333 5.20004 11.3333 5.20004 11.0667L 3.20004 9.46666C 3.0667 9.33332 2.93337 9.06666 3.0667 8.93332L 4.93337 5.73333C 5.0667 5.46666 5.33337 5.46666 5.4667 5.46666L 7.73337 6.39999C 8.2667 6.13333 8.80004 5.73333 9.33337 5.46666L 9.73337 2.93333C 9.73337 2.66666 10 2.53333 10.1334 2.53333L 13.8667 2.53333C 14.1334 2.53333 14.2667 2.66666 14.2667 2.93333L 14.6667 5.46666C 15.2 5.73333 15.7334 5.99999 16.2667 6.39999L 18.5334 5.46666C 18.8 5.33333 18.9334 5.46666 19.0667 5.73333L 20.9334 8.93332C 21.0667 9.19999 20.9334 9.33332 20.8 9.46666L 18.8 11.0667C 18.9334 11.3333 18.9334 11.7333 18.9334 12Z"/>
</defs>
</svg>
