<svg width="24" height="24" viewBox="0 0 24 24" version="1.1" xmlns="http://www.w3.org/2000/svg" xmlns:xlink="http://www.w3.org/1999/xlink">
<g id="Canvas" fill="none">
<g id="settings-applications">
<g id="Shape">
<path fill-rule="evenodd" clip-rule="evenodd" d="M 12.0001 9.33325C 10.5334 9.33325 9.3334 10.5333 9.3334 11.9999C 9.3334 13.4666 10.5334 14.6666 12.0001 14.6666C 13.4667 14.6666 14.6667 13.4666 14.6667 11.9999C 14.6667 10.5333 13.4667 9.33325 12.0001 9.33325ZM 21.3333 0L 2.66667 0C 1.2 0 0 1.2 0 2.66667L 0 21.3333C 0 22.8 1.2 24 2.66667 24L 21.3333 24C 22.8 24 24 22.8 24 21.3333L 24 2.66667C 24 1.2 22.8 0 21.3333 0ZM 18.9333 11.9999C 18.9333 12.2665 18.9333 12.6665 18.9333 12.9332L 20.9333 14.5332C 21.0666 14.6665 21.2 14.9332 21.0666 15.0665L 19.2 18.2665C 19.0666 18.5332 18.8 18.5332 18.6666 18.5332L 16.4 17.5999C 15.8666 17.9999 15.3333 18.2665 14.8 18.5332L 14.4 21.0665C 14.4 21.3332 14.1333 21.4665 14 21.4665L 10.2666 21.4665C 9.99998 21.4665 9.86664 21.3332 9.86664 21.0665L 9.33331 18.5332C 8.79998 18.2665 8.26664 17.9999 7.73331 17.5999L 5.46664 18.5332C 5.19998 18.6665 5.06664 18.5332 4.93331 18.2665L 3.06664 15.0665C 2.93331 14.7999 3.06664 14.6665 3.19998 14.5332L 5.19998 12.9332C 5.19998 12.6665 5.19998 12.2665 5.19998 11.9999C 5.19998 11.7332 5.19998 11.3332 5.19998 11.0665L 3.19998 9.46654C 3.06664 9.3332 2.93331 9.06654 3.06664 8.9332L 4.93331 5.7332C 5.06664 5.46654 5.33331 5.46654 5.46664 5.46654L 7.73331 6.39987C 8.26664 6.1332 8.79998 5.7332 9.33331 5.46654L 9.73331 2.9332C 9.73331 2.66654 9.99998 2.5332 10.1333 2.5332L 13.8666 2.5332C 14.1333 2.5332 14.2666 2.66654 14.2666 2.9332L 14.6666 5.46654C 15.2 5.7332 15.7333 5.99987 16.2666 6.39987L 18.5333 5.46654C 18.8 5.3332 18.9333 5.46654 19.0666 5.7332L 20.9333 8.9332C 21.0666 9.19987 20.9333 9.3332 20.8 9.46654L 18.8 11.0665C 18.9333 11.3332 18.9333 11.7332 18.9333 11.9999Z" fill="#21CB8D"/>
</g>
</g>
</g>
</svg>

